<?xml version="1.0" encoding="utf-8"?>
<!-- Generator: Adobe Illustrator 23.0.5, SVG Export Plug-In . SVG Version: 6.00 Build 0)  -->
<svg version="1.1" id="Слой_1" xmlns="http://www.w3.org/2000/svg" xmlns:xlink="http://www.w3.org/1999/xlink" x="0px" y="0px"
	 viewBox="0 0 3200 2000" style="enable-background:new 0 0 3200 2000;" xml:space="preserve">
<style type="text/css">
	.st0{fill:#EBF3FA;}
	.st1{fill:#FFFFFF;}
	.st2{fill:#ADCBF9;}
	.st3{fill:#FCECDB;}
	.st4{fill:#699DEE;}
	.st5{fill:#548EE2;}
	.st6{fill:#F4D2B8;}
	.st7{fill:#2B478B;}
	.st8{fill:#568CDB;}
	.st9{fill:#B5453C;}
	.st10{fill:#F99746;}
	.st11{fill:#ED7D2B;}
	.st12{fill:#233862;}
	.st13{fill:#FFB27D;}
	.st14{fill:#ED975D;}
	.st15{fill:#EBF3FF;}
	.st16{fill:#2E3552;}
</style>
<path class="st0" d="M367.52,1785.65c0,0-337.47-362.34-57.07-754.62C559.24,682.96,849.31,706.76,1062.12,848
	c90.64,60.16,351.97,7.41,574.39-346.75c303.33-482.98,1354.76-190.05,1163.05,553.03c-92.77,359.6,282.35,372.67,91.21,732.13
	L367.52,1785.65z"/>
<g>
	<path class="st1" d="M2253.47,677.05l-41.19,29.56l-41.41-29.24c9.18-12.91,24.33-21.45,41.41-21.45
		C2229.25,655.92,2244.29,664.24,2253.47,677.05z"/>
	<g>
		<path class="st1" d="M2212.28,583.89c-41.41,0-78.01,20.6-100.21,52.08l26.15,18.35c16.43-23.26,43.54-38.42,74.06-38.42
			c30.31,0,57.2,14.94,73.63,37.88l26.04-18.68C2289.65,604.06,2253.26,583.89,2212.28,583.89z"/>
	</g>
	<g>
		<path class="st1" d="M2212.28,446.97c-87.61,0-165.09,43.54-212.04,110.13l26.15,18.35c41.19-58.27,109.17-96.47,185.9-96.47
			c76.09,0,143.64,37.56,184.94,95.08l25.93-18.68C2376.09,489.76,2299.15,446.97,2212.28,446.97z"/>
	</g>
	<g>
		<path class="st1" d="M2212.28,521.88c-62.32,0-117.6,30.84-151.22,78.12l26.14,18.36c27.85-38.95,73.53-64.46,125.07-64.46
			c51.12,0,96.47,25.08,124.43,63.5l25.93-18.57C2328.92,552.19,2274.07,521.88,2212.28,521.88z"/>
	</g>
</g>
<path class="st2" d="M1594.86,915.73l-37.76-0.87c12.13,15.73,14.86,30.21,7.3,42.47c-7.55,12.51-25.63,22.78-52.62,30.58
	c20.43-54.36,30.71-111.69,30.71-170.5c0-127.2-49.49-251.7-142.89-344.84c-90.41-90.41-212.61-142.89-344.84-142.89
	c-74.25,0-145.99,16.46-211.24,47.92c-0.02,0.01-0.04,0.02-0.06,0.03c-20.98-6.4-41.41-11.65-61.12-15.64
	c-99.51-20.19-170.13-6.24-198.82,39.3c-27.3,43.31-12.44,108.5,41.73,184.54c-0.01,0.01-0.01,0.02-0.02,0.04
	c-12.1,22.36-23.75,48.89-32.32,74.29c-101.78,6.07-156.26,23.98-176.07,56.42c-23.03,37.77,8.42,88.45,109.09,137.73
	c13.87,6.81,28.73,13.5,44.33,20.18c12.06,105.96,60.33,208.67,139.54,287.88c44.82,44.7,96.95,79.86,155.02,104.5
	c177.9,75.04,389.97,39.91,534.78-104.5c43.58-43.58,78.13-94.35,102.52-150.56c49.65-10.28,82.34-26.37,95.34-47.67
	C1606.5,949.41,1605.39,933.06,1594.86,915.73z M1478.35,995.59c-33.06,5.94-74.29,9.41-122.46,9.91
	c-74.74,0.91-160.58-4.99-251.04-16.91c7.61-16.57,15.07-33.6,22.35-51.01c28.07,9.39,55.31,16.83,81.29,22.1
	c29.76,6.04,56.93,9.02,81.17,9.02c56.83,0,97.54-16.41,117.65-48.33c3.31-5.26,6.01-10.83,8.09-16.72h-28.97
	c-0.48,0.88-0.99,1.75-1.52,2.6c-14.94,23.71-48.31,35.96-95.18,35.95c-22.42,0-47.93-2.8-75.98-8.49
	c-24.44-4.96-50.08-11.92-76.51-20.7c6.98-17.45,13.76-35.24,20.31-53.29c17.66-48.69,32.78-96.95,45-143.3
	c99.1,14.61,202.64,15.05,302.1,7.55c6.29,30.51,9.47,61.74,9.47,93.45C1514.13,879.2,1502.12,939.13,1478.35,995.59z
	 M874.81,1237.39c-14.09-5.11-21.24-25.33-24.76-41.4c-5.56-25.39-6.57-61.05-2.91-103.12c1.85-21.28,4.82-43.9,8.83-67.57
	c57.75,15.39,114.94,35.18,170.63,59.04c-12.54,21.63-25.23,41.68-37.91,59.86c-24.16,34.64-47.79,61.36-68.34,77.28
	C907.35,1231.56,888.9,1242.49,874.81,1237.39z M1039.35,1061.7c-58.29-25.12-118.22-45.88-178.74-61.9
	c2.13-10.98,4.47-22.16,7.01-33.51c16.83,3.83,33.9,7.53,51.18,11.1c50.58,10.34,101.03,19.13,150.42,26.23
	C1059.45,1023.86,1049.46,1043.26,1039.35,1061.7z M929.95,959.07c-19.54-4.02-38.8-8.22-57.73-12.58
	c8.91-37.08,19.86-75.73,32.63-115.11c66.42,40.83,133.98,74.05,197.94,97.62c-8.02,19.16-16.27,37.84-24.68,55.91
	C1029.53,977.93,979.82,969.29,929.95,959.07z M767.72,458.6c36.92,75.64,108.08,137.97,184.65,179.31
	c-18.55,40.42-36.22,83.56-52.47,128.36c-3.03,8.35-5.97,16.69-8.85,25.01c-97.04-63.16-179.19-135.64-233.09-205.79
	c-0.01-0.01-0.01-0.02-0.02-0.03C686.38,536.94,723.44,494.1,767.72,458.6z M1182.65,388.61c14.09,5.11,21.24,25.33,24.76,41.4
	c5.56,25.39,6.57,61.05,2.91,103.12c-4.01,46.05-13.23,98.36-26.95,154.06c-67.48-11.61-134.92-30.75-197.01-60.89
	c26.46-55.19,54.44-104.4,82.42-144.51c24.16-34.64,47.79-61.36,68.34-77.28c10.72-8.31,25.14-17.2,37.77-17.2
	C1177.57,387.31,1180.17,387.71,1182.65,388.61z M1176.94,712.28c-11.91,44.82-26.58,91.5-43.68,138.63
	c-6.59,18.17-13.41,36.05-20.43,53.58c-64.21-23.58-132.37-57.3-199.37-98.95c3.46-10.12,7.04-20.28,10.73-30.46
	c15.88-43.79,33.12-85.93,51.19-125.4C1038.62,680.33,1107.13,700.12,1176.94,712.28z M1379.54,492.51
	c59.58,59.58,99.11,131.15,119.1,205.98c-105.9,7.74-202.94,5.31-289.68-7.24c13.77-56.24,23.03-109.15,27.1-155.88
	c4.49-51.61,3.94-112.73-16.98-147.13C1279.69,411.52,1333.83,446.67,1379.54,492.51z M1054.76,357.92c31.83,0,63.13,3.2,93.73,9.56
	c-36.09,15.71-72.94,59.44-100.91,99.53c-28.63,41.04-57.21,91.26-84.21,147.47c-72.87-39.59-141.69-100.29-174.59-171.79
	C865.59,388.06,957.97,357.92,1054.76,357.92z M605.92,415.41c14.94-23.71,48.31-35.95,95.18-35.95c22.42,0,47.93,2.8,75.98,8.49
	c10.65,2.16,21.52,4.69,32.58,7.61c0.01,0,0.02,0,0.03,0.01c-66.91,38.7-125.85,94.7-169.73,164.91c-0.01,0.01-0.02,0.02-0.02,0.04
	C598.53,499.04,586.08,446.9,605.92,415.41z M644.17,610.88c0-0.01,0.01-0.02,0.01-0.02c56.75,70.93,140.39,143.44,238.13,206.33
	c-13.86,42.18-25.68,83.63-35.22,123.35c-81.03-19.6-175.21-47.33-249.59-78.8c-6.17-61.68,0.55-124.11,19.07-183.01
	C623.75,655.9,633.29,632.36,644.17,610.88z M548.46,839.7c-87.79-42.84-127.91-84.2-109.95-113.54
	c14.49-23.77,67.23-39.87,147.97-45.81c-16.27,54.93-21.93,112.04-18.57,168.52C561.21,845.89,554.77,842.8,548.46,839.7z
	 M842.47,960.44c-2.5,11.17-4.81,22.18-6.93,33.01c-5.63-1.37-11.27-2.7-16.91-3.99c-95.3-21.69-166.81-26.1-199.96-26.85
	c-8.21-24.73-14.25-50.03-18.07-75.85C665.51,911.73,738.6,935.68,842.47,960.44z M628.26,988.82
	c35.35,1.42,100.9,6.78,184.63,25.83c5.99,1.36,11.98,2.79,17.96,4.25c-4.31,25.13-7.49,49.15-9.45,71.72
	c-3.72,42.77-3.98,92.08,7.95,127.3c-36.31-20.44-69.61-45.73-99.49-75.61C685.31,1097.78,651.04,1045.62,628.26,988.82z
	 M915.44,1255.41c33.99-17.81,68.14-58.73,94.44-96.43c13.56-19.44,27.12-40.96,40.5-64.19c77.16,34.94,151.35,77.87,221.04,127.88
	C1156.54,1284.07,1027.18,1291.01,915.44,1255.41z M1379.54,1142.32c-25.4,25.47-53.36,47.6-83.57,66.24
	c-73.21-53.5-151.42-99.3-232.91-136.37c11.2-20.53,22.24-42.21,33.02-64.84c74.59,9.89,146.3,15.82,211.76,17.35
	c17.09,0.49,33.68,0.49,49.78,0.37c41.73-0.49,78.87-2.97,110.7-7.43C1446.03,1063.82,1416.19,1105.67,1379.54,1142.32z"/>
<g>
	<g>
		<g>
			<path class="st3" d="M2274.23,1675.93H1885.8v-137.19h389.68c30.3,0,54.86,24.56,54.86,54.86v26.24
				C2330.33,1650.81,2305.22,1675.93,2274.23,1675.93z"/>
			<path class="st4" d="M2661.88,1595.18v20.64c0,11.03-2.96,21.36-8.15,30.23c-10.41,17.86-29.78,29.87-51.96,29.87h-727.88
				c-4.82,0-8.72-3.9-8.72-8.71v-3.09c0-4.81,3.9-8.71,8.72-8.71h443.71c2.37-2.89,4.46-6.02,6.23-9.36
				c4.16-7.83,6.5-16.75,6.5-26.23v-26.24c0-4.83-0.62-9.51-1.8-13.96c-1.99-7.55-5.54-14.47-10.29-20.37h-444.35
				c-4.82,0-8.72-3.9-8.72-8.72v-3.08c0-4.82,3.9-8.72,8.72-8.72h731.54c25.78,0,47.52,17.28,54.27,40.89
				C2661.12,1584.57,2661.88,1589.79,2661.88,1595.18z"/>
			<path class="st5" d="M2659.71,1579.63h-331.17c-1.99-7.55-5.54-14.47-10.29-20.37h-444.35c-4.82,0-8.72-3.9-8.72-8.72v-3.08
				c0-4.82,3.9-8.72,8.72-8.72h731.54C2631.21,1538.74,2652.96,1556.02,2659.71,1579.63z"/>
		</g>
		<polygon class="st6" points="1885.8,1607.33 1939.69,1609.64 1885.8,1611.03 		"/>
		<polygon class="st6" points="1885.8,1628.86 2014.02,1631.17 1885.8,1632.55 		"/>
	</g>
	<g>
		<g>
			<g>
				<path class="st7" d="M1978.43,1782.35h413.5v-106.71h-416.86c-28.54,0-51.68,23.14-51.68,51.68v0
					C1923.4,1757.71,1948.04,1782.35,1978.43,1782.35z"/>
				<path class="st3" d="M2368.2,1782.35h470.6v-106.71h-471.8c-29.02,0-52.54,23.52-52.54,52.54v0.43
					C2314.47,1758.29,2338.52,1782.35,2368.2,1782.35z"/>
				<path class="st7" d="M2283.04,1782.35h572.1c4.41,0,7.98-3.57,7.98-7.98l0,0c0-4.41-3.57-7.98-7.98-7.98h-572.1
					c-4.41,0-7.98,3.57-7.98,7.98l0,0C2275.06,1778.78,2278.64,1782.35,2283.04,1782.35z"/>
				<path class="st7" d="M2283.04,1691.6h572.1c4.41,0,7.98-3.57,7.98-7.98l0,0c0-4.41-3.57-7.98-7.98-7.98h-572.1
					c-4.41,0-7.98,3.57-7.98,7.98l0,0C2275.06,1688.03,2278.64,1691.6,2283.04,1691.6z"/>
			</g>
			<polygon class="st6" points="2838.81,1729 2775.24,1730.79 2838.81,1731.87 			"/>
			<polygon class="st6" points="2838.81,1704.44 2687.57,1706.23 2838.81,1707.31 			"/>
		</g>
		<g>
			<path class="st4" d="M2689.13,1705.87c0,0,6.48,4.58,8.63,12.12c0.38,1.32,0.62,2.73,0.67,4.22c0.36,10.01,0,32.67,0,32.67
				l19.13-11.33l19.08,11.33v-30.71c0-5.81-1.64-11.46-4.68-15.16c-1.47-1.79-3.26-3.14-5.29-3.14H2689.13z"/>
			<path class="st8" d="M2689.13,1705.87c0,0,6.48,4.58,8.63,12.12l38.35,0.45c0,0-1.5-10.79-9.42-12.57H2689.13z"/>
		</g>
	</g>
	<g>
		<g>
			<g>
				<path class="st3" d="M2320.08,1539.03h422.48v-156.78h-423.87c-33.83,0-61.26,27.43-61.26,61.26v32.87
					C2257.43,1510.98,2285.48,1539.03,2320.08,1539.03z"/>
				<path class="st9" d="M2267.37,1443.08v33.74c0.1,14.41,8.08,26.91,19.8,33.6c5.77,3.28,12.44,5.16,19.53,5.16h458.8
					c5.38,0,9.74,4.36,9.74,9.74v3.98c0,5.38-4.36,9.74-9.74,9.74h-792.59c-22.74,0-42.84-11.3-54.98-28.61
					c-7.65-10.9-12.15-24.18-12.15-38.52v-26.62c0-9.82,2.25-19.13,6.26-27.41c10.19-21.08,31.78-35.62,56.77-35.62h796.69
					c5.38,0,9.74,4.35,9.74,9.73v3.98c0,5.38-4.36,9.74-9.74,9.74h-460.21c-11,0-20.95,4.68-27.91,12.17
					C2271.23,1424.5,2267.43,1433.34,2267.37,1443.08z"/>
			</g>
			<polygon class="st6" points="2742.56,1460.64 2683.74,1463.27 2742.56,1464.86 			"/>
			<polygon class="st6" points="2742.56,1424.56 2602.63,1427.19 2742.56,1428.78 			"/>
		</g>
		<g>
			<path class="st10" d="M2604.07,1426.67c0,0,9.23,4.97,12.29,13.14c0.54,1.43,0.89,2.96,0.96,4.57c0.51,10.86,0,35.43,0,35.43
				l27.26-12.29l27.19,12.29v-33.3c0-6.3-2.33-12.42-6.67-16.43c-2.1-1.94-4.65-3.41-7.53-3.41H2604.07z"/>
			<path class="st11" d="M2604.07,1426.67c0,0,9.23,4.97,12.29,13.14l54.64,0.49c0,0-2.14-11.7-13.42-13.63H2604.07z"/>
		</g>
	</g>
</g>
<g>
	<g>
		<path class="st12" d="M2327.42,1324.12c24.18,42.09,54.6,58.33,54.6,58.33h126.54
			C2508.56,1382.45,2308.97,1292.01,2327.42,1324.12z"/>
		<g>
			<path class="st13" d="M2424.61,1649.76c3.3,3.78,3.72,8,2.09,12.51c0,0.02-0.01,0.04-0.03,0.06
				c-3.02,8.34-12.99,17.65-24.57,26.95c-1.48,1.19-2.8,2.28-3.94,3.29c-0.3,0.26-0.6,0.53-0.88,0.79c-0.23,0.2-0.46,0.42-0.68,0.61
				c-10.8,9.96-6.74,12.24-26.14,32.44c-22.12,23.02-37.36,23.43-41.69,21.34c-3.67-1.79,3.78-14,12.04-27.72
				c0.4-0.66,0.79-1.33,1.2-2c1.1-1.82,2.19-3.68,3.28-5.51c9.67-16.52,7.19-24.26,4.89-48.84
				c-1.86-19.97-31.07-111.58-31.07-111.58l42.4-7.3c0,0,12.77,72.95,26.84,84.18c7.52,5.99,15.94,6.06,23.17,10.5
				c0.51,0.31,1.01,0.63,1.5,0.95C2417.12,1643.16,2421.3,1645.97,2424.61,1649.76z"/>
			<path class="st12" d="M2424.61,1649.76c3.3,3.78,3.72,8,2.09,12.51c0,0.02-0.01,0.04-0.03,0.06c-3.7,8.33-13.42,17.6-24.61,26.87
				c-1.46,1.21-2.75,2.33-3.9,3.37c-0.3,0.26-0.6,0.53-0.88,0.79c-0.23,0.2-0.46,0.42-0.68,0.61c-10.8,9.96-6.74,12.24-26.14,32.44
				c-22.12,23.02-37.36,23.43-41.69,21.34c-3.67-1.79,3.78-14,12.04-27.72c4.31-1.58,24.31-9.7,39.44-29.06
				c13.32-17,22.21-38.84,31.28-51.49c0.51,0.31,1.01,0.63,1.5,0.95C2417.12,1643.16,2421.3,1645.97,2424.61,1649.76z"/>
			<path class="st13" d="M2082.74,1623.28c-2.62,13.09-21.27,10.9-42.11,5.81s-15.89,0.96-45.55-2.32
				c-29.66-3.28-38.65-14.34-39.55-18.75c-0.81-3.91,13.85-5.29,29.57-7.1c1.98-0.22,3.96-0.47,5.95-0.71
				c17.75-2.23,30.75-13.68,46.87-23.09c15.27-8.91,38.06-45.21,38.06-45.21l40.68,3.22c0,0-21.35,32.42-29.6,46.52
				c-4.86,8.29-4.6,19.25-3.99,27.72C2083.37,1613.96,2083.67,1618.67,2082.74,1623.28z"/>
			<path class="st12" d="M2040.62,1629.09c-20.84-5.09-15.89,0.96-45.55-2.32c-29.66-3.28-38.65-14.34-39.55-18.75
				c-0.81-3.91,13.85-5.29,29.57-7.1l0.15,0.3c0,0,17.79,12.61,42.48,13.2c20.12,0.49,41.44-5.28,55.34-5.05
				c0.32,4.6,0.62,9.31-0.31,13.92C2080.12,1636.37,2061.46,1634.18,2040.62,1629.09z"/>
			<path class="st12" d="M2238.63,1363.17l38.03,102.33l49.65,133.61c0,0,13.47,1.3,26.38-2.41c11.88-3.43,25.51-12.42,25.51-12.42
				s-13.79-143.46-39.5-225.81c-6.59-21.14-13.98-38.24-22.13-47.86C2276.69,1263.49,2238.63,1363.17,2238.63,1363.17z"/>
			<path class="st7" d="M2277.29,1200.66c24.91-8.04,95.97,2.28,167.35,16.25l14.95-24.65l154.17-12.04
				c0,0,50.88,112.82,23.02,184.71c-4.09,10.57-12.23,17.34-26.09,17.57c0,0.01-2.25-0.01-2.25,0c0,0-91.76-0.05-121.56-0.05
				c-76.67,0-162.27-52.71-173.34-54.92c-18.12-3.63-25.37,32.62-43.5,70.68c-18.12,38.06-170.36,168.55-170.36,168.55
				s-23.4,0.23-33.06-3.39c-10.39-3.9-14.2-8.96-14.2-8.96S2221.11,1218.78,2277.29,1200.66z"/>
			<path class="st12" d="M2460.49,979.94c54.9,30.23,166.28,92.9,166.86,92.49c0,0,40.94,15.43,64.16,0
				c38.71-25.71,59.47-94.89-11.32-154.43c-35.3-29.69-60.39-36.92-64.2-84.34c-2.07-25.72-37.23-110.62-95.65-102.76
				c-4.88,0.66-34.93,2.06-54.68,12.43C2415.32,769.76,2378.19,968.24,2460.49,979.94z"/>
			<path class="st13" d="M2506.51,954.21c-0.24,0.16,27.01,9.46,45.24,1.39c17.14-7.58,30.13-35.78,29.88-35.8
				c-7.8-0.36-16.36-7.18-22.96-51.92l-3.32,1.19l-55.84,20.09c0,0,4.05,17.92,6.66,34.97
				C2508.37,938.46,2509.56,952.18,2506.51,954.21z"/>
			<path class="st14" d="M2499.51,889.17c0,0,4.05,17.92,6.66,34.97c32.07-5.77,44.66-37.73,49.17-55.07L2499.51,889.17z"/>
			<path class="st13" d="M2491.19,906.95c0,0,76.39-10.25,69.28-57.73c-7.12-47.48-2.05-80.77-51.13-76.24
				c-49.08,4.54-55.82,24.07-57.29,40.5C2450.57,829.91,2471.14,908.39,2491.19,906.95z"/>
			<path class="st12" d="M2454.83,787.46c0,0,48.9,42.14,82.17,45.54s45.86-7.28,45.86-7.28s-19.61-16.28-31.41-42.55
				c-3.48-7.74-10.82-13.06-19.28-13.79C2508.42,767.33,2463.39,766.39,2454.83,787.46z"/>
			<path class="st12" d="M2485.4,783.68c0,0-16.36,15.82-21.51,27.55c-4.97,11.32-6.46,38.4-2.5,49.16c0,0-25.49-49.57-11.06-73.65
				C2465.63,761.21,2485.4,783.68,2485.4,783.68z"/>
			<path class="st1" d="M2442.18,1066.75c2.31,154.64,0.63,122.33,17.55,137c4.08,3.53,15.54,5.64,30.62,6.63
				c47.42,3.15,130.77-4.66,133.94-13.43c10.94-30.32,3.22-39.74,12.34-86.16c0.95-4.94,2.13-10.28,3.51-16.1
				c7.61-31.88,15.01-42.73-11.98-93.95c-24.48-46.4-49.91-84.06-52.2-82.7c-64.58,38.34-69.79,6.11-69.79,6.11
				S2441.05,991.32,2442.18,1066.75z"/>
			<path class="st7" d="M2276.66,1465.49l49.65,133.61c0,0,13.47,1.3,26.38-2.41c11.88-3.43,25.51-12.42,25.51-12.42
				s-13.79-143.46-39.5-225.81L2276.66,1465.49z"/>
			<path class="st1" d="M2506.17,924.14c0,0-66.45,11.27-74.26,39.88s-53.73,196.82-53.73,196.82s33.78,6.07,49.39-9.54
				c15.61-15.61,54.3-144.79,54.3-144.79L2506.17,924.14z"/>
			<path class="st15" d="M2490.35,1210.38c47.42,3.15,130.77-4.66,133.94-13.43c10.94-30.32,3.22-39.74,12.34-86.16l-22.87-64.4
				c0,0,3.78,71.72-17.37,90.58c-21.13,18.86-86.59,36.41-96.88,52.17C2494.56,1196.71,2491.3,1204.29,2490.35,1210.38z"/>
			<path class="st13" d="M2544.67,1180.22c0,0-46.78-10.42-54.33-6.26c-7.55,4.15-26,19.27-28.31,24.53
				c-2.31,5.26,16.8-3.99,23.02-5.66c4.03-1.08,14.63,2.6,19.87,4.35c22.08,7.36,35.61,3.57,35.61,3.57L2544.67,1180.22z"/>
			<path class="st1" d="M2576,918c0,0,62.82,3.87,84.56,34.2c30.61,42.69,91.33,224.64,56.53,248.91
				c-39.19,27.33-178.37,7.15-178.37,7.15s-4.63-21.65,1.81-32.12c6.44-10.47,111.16-27.39,116-32.22
				c4.83-4.83-60.41-94.25-60.41-108.75C2596.12,1020.67,2576,918,2576,918z"/>
			<path class="st13" d="M2488.08,1186.98c0,0-9.8,12.64-13.01,14.15c-3.21,1.51-5.29,1.13-5.29,1.13l6.61-11.89L2488.08,1186.98z"
				/>
			<path class="st13" d="M2490.35,1173.96l-28.5,13.84c0,0,1.21,1.98,4.72,1.82c3.51-0.16,12.36-3.4,12.36-3.4L2490.35,1173.96z"/>
		</g>
		<g>
			<g>
				<polygon class="st10" points="2475.07,1220.5 2249.63,1220.5 2181.82,1051.86 2406.9,1051.86 				"/>
				<polygon class="st11" points="2246.99,1213.93 2544.67,1213.93 2544.67,1220.5 2249.63,1220.5 				"/>
			</g>
			<path class="st1" d="M2306.54,1136.18c-1.7-5.93,1.73-10.73,7.66-10.73s12.11,4.81,13.81,10.73c1.7,5.93-1.73,10.73-7.66,10.73
				C2314.42,1146.91,2308.24,1142.11,2306.54,1136.18z"/>
		</g>
	</g>
</g>
<ellipse transform="matrix(0.2298 -0.9732 0.9732 0.2298 730.7878 2182.9885)" class="st10" cx="1744.56" cy="629.8" rx="9.92" ry="9.92"/>
<path class="st16" d="M3084.87,1789.29H191.23c-1.81,0-3.29-1.48-3.29-3.29v-1.12c0-1.81,1.48-3.29,3.29-3.29h2893.64
	c1.81,0,3.29,1.48,3.29,3.29v1.12C3088.16,1787.81,3086.68,1789.29,3084.87,1789.29z"/>
</svg>
